<svg width="20" height="20" viewBox="0 0 20 20" fill="none" xmlns="http://www.w3.org/2000/svg">
<g id="solar:users-group-rounded-bold">
<path id="Vector" d="M7.50081 8.33317C9.34176 8.33317 10.8341 6.84079 10.8341 4.99984C10.8341 3.15889 9.34176 1.6665 7.50081 1.6665C5.65986 1.6665 4.16748 3.15889 4.16748 4.99984C4.16748 6.84079 5.65986 8.33317 7.50081 8.33317Z" fill="#FF8B13"/>
<path id="Vector_2" d="M7.50081 17.5007C10.7225 17.5007 13.3341 16.0083 13.3341 14.1673C13.3341 12.3264 10.7225 10.834 7.50081 10.834C4.27915 10.834 1.66748 12.3264 1.66748 14.1673C1.66748 16.0083 4.27915 17.5007 7.50081 17.5007Z" fill="#FF8B13"/>
<path id="Vector_3" d="M17.5 14.1667C17.5 15.5475 15.8033 16.6667 13.7325 16.6667C14.3425 16 14.7625 15.1625 14.7625 14.1684C14.7625 13.1725 14.3416 12.335 13.73 11.6675C15.8016 11.6667 17.5 12.7867 17.5 14.1667ZM15 5.00004C15.0002 5.4023 14.9034 5.79869 14.7178 6.15554C14.5321 6.5124 14.2631 6.81918 13.9335 7.04985C13.604 7.28052 13.2236 7.42825 12.8247 7.48051C12.4259 7.53277 12.0203 7.48801 11.6425 7.35004C12.0491 6.63365 12.2625 5.82381 12.2616 5.00004C12.2616 4.14587 12.0366 3.3442 11.6433 2.65087C12.0211 2.51306 12.4266 2.46844 12.8253 2.52078C13.2241 2.57312 13.6043 2.72088 13.9337 2.95153C14.2632 3.18217 14.5321 3.4889 14.7178 3.84566C14.9034 4.20243 15.0002 4.59787 15 5.00004Z" fill="#FF8B13"/>
</g>
</svg>
