<svg width="7" height="14" viewBox="0 0 7 14" fill="none" xmlns="http://www.w3.org/2000/svg">
<path id="Vector" fill-rule="evenodd" clip-rule="evenodd" d="M0.454895 13.8377C0.38723 13.7797 0.331657 13.709 0.291352 13.6295C0.251047 13.55 0.226799 13.4634 0.219997 13.3745C0.213194 13.2857 0.223969 13.1963 0.251705 13.1116C0.279442 13.0269 0.323595 12.9486 0.381644 12.8809L5.42876 6.99188L0.381644 1.10283C0.271431 0.965527 0.218928 0.790747 0.235234 0.615439C0.25154 0.440131 0.335377 0.278035 0.469022 0.163415C0.602667 0.0487947 0.775646 -0.00936508 0.951392 0.00123024C1.12714 0.0118265 1.29188 0.0903463 1.41078 0.220193L6.83681 6.55056C6.94213 6.67348 7.00002 6.83001 7.00002 6.99188C7.00002 7.15375 6.94213 7.31028 6.83681 7.4332L1.41078 13.7636C1.29368 13.9 1.12723 13.9843 0.947998 13.998C0.768764 14.0118 0.591407 13.9538 0.454895 13.8368" fill="#FF8B13"/>
</svg>
