<svg width="20" height="20" viewBox="0 0 20 20" fill="none" xmlns="http://www.w3.org/2000/svg">
<g id="solar:home-2-bold">
<path id="Vector" fill-rule="evenodd" clip-rule="evenodd" d="M2.09996 6.519C1.66663 7.30817 1.66663 8.26234 1.66663 10.169V11.4373C1.66663 14.6873 1.66663 16.3132 2.64329 17.3232C3.61996 18.3332 5.19079 18.3332 8.33329 18.3332H11.6666C14.8091 18.3332 16.3808 18.3332 17.3566 17.3232C18.3325 16.3132 18.3333 14.6882 18.3333 11.4373V10.1698C18.3333 8.26234 18.3333 7.309 17.9 6.519C17.4683 5.72817 16.6775 5.23817 15.0966 4.2565L13.43 3.22234C11.7591 2.18484 10.9233 1.6665 9.99996 1.6665C9.07663 1.6665 8.24163 2.18484 6.56996 3.22234L4.90329 4.2565C3.32246 5.23817 2.53246 5.72817 2.09996 6.519ZM9.37496 14.9998C9.37496 15.1656 9.44081 15.3246 9.55802 15.4418C9.67523 15.559 9.8342 15.6248 9.99996 15.6248C10.1657 15.6248 10.3247 15.559 10.4419 15.4418C10.5591 15.3246 10.625 15.1656 10.625 14.9998V12.4998C10.625 12.3341 10.5591 12.1751 10.4419 12.0579C10.3247 11.9407 10.1657 11.8748 9.99996 11.8748C9.8342 11.8748 9.67523 11.9407 9.55802 12.0579C9.44081 12.1751 9.37496 12.3341 9.37496 12.4998V14.9998Z" fill="#FF8B13"/>
</g>
</svg>
