<svg width="24" height="24" viewBox="0 0 24 24" fill="none" xmlns="http://www.w3.org/2000/svg">
<g id="solar:suitcase-bold">
<path id="Vector" fill-rule="evenodd" clip-rule="evenodd" d="M12.052 1.25H11.948C11.049 1.25 10.3 1.25 9.706 1.33C9.078 1.414 8.511 1.6 8.056 2.055C7.6 2.511 7.414 3.078 7.33 3.705C7.25 4.3 7.25 5.05 7.25 5.948V6.026C5.229 6.092 4.015 6.328 3.172 7.172C2 8.343 2 10.229 2 14C2 17.771 2 19.657 3.172 20.828C4.344 21.999 6.229 22 10 22H14C17.771 22 19.657 22 20.828 20.828C21.999 19.656 22 17.771 22 14C22 10.229 22 8.343 20.828 7.172C19.985 6.328 18.771 6.092 16.75 6.026V5.948C16.75 5.05 16.75 4.3 16.67 3.706C16.586 3.078 16.4 2.511 15.944 2.056C15.489 1.6 14.922 1.414 14.294 1.33C13.7 1.25 12.95 1.25 12.052 1.25ZM15.25 6.002V6C15.25 5.036 15.248 4.388 15.184 3.905C15.121 3.444 15.014 3.246 14.884 3.116C14.754 2.986 14.556 2.879 14.094 2.816C13.612 2.752 12.964 2.75 12 2.75C11.036 2.75 10.388 2.752 9.905 2.817C9.444 2.879 9.246 2.986 9.116 3.117C8.986 3.248 8.879 3.444 8.816 3.905C8.753 4.388 8.75 5.036 8.75 6V6.002C9.14133 6.00067 9.558 6 10 6H14C14.4413 6 14.858 6.00067 15.25 6.002ZM17 9C17 9.26522 16.8946 9.51957 16.7071 9.70711C16.5196 9.89464 16.2652 10 16 10C15.7348 10 15.4804 9.89464 15.2929 9.70711C15.1054 9.51957 15 9.26522 15 9C15 8.73478 15.1054 8.48043 15.2929 8.29289C15.4804 8.10536 15.7348 8 16 8C16.2652 8 16.5196 8.10536 16.7071 8.29289C16.8946 8.48043 17 8.73478 17 9ZM8 10C8.26522 10 8.51957 9.89464 8.70711 9.70711C8.89464 9.51957 9 9.26522 9 9C9 8.73478 8.89464 8.48043 8.70711 8.29289C8.51957 8.10536 8.26522 8 8 8C7.73478 8 7.48043 8.10536 7.29289 8.29289C7.10536 8.48043 7 8.73478 7 9C7 9.26522 7.10536 9.51957 7.29289 9.70711C7.48043 9.89464 7.73478 10 8 10Z" fill="#FF8B13"/>
</g>
</svg>
