<svg width="20" height="20" viewBox="0 0 20 20" fill="none" xmlns="http://www.w3.org/2000/svg">
<g id="solar:buildings-bold">
<path id="Vector" fill-rule="evenodd" clip-rule="evenodd" d="M12.5 1.66669H14.1666C15.7383 1.66669 16.5233 1.66669 17.0116 2.15502C17.5 2.64335 17.5 3.42835 17.5 5.00002V17.7084H18.3333C18.4991 17.7084 18.658 17.7742 18.7752 17.8914C18.8924 18.0086 18.9583 18.1676 18.9583 18.3334C18.9583 18.4991 18.8924 18.6581 18.7752 18.7753C18.658 18.8925 18.4991 18.9584 18.3333 18.9584H1.66663C1.50087 18.9584 1.34189 18.8925 1.22468 18.7753C1.10747 18.6581 1.04163 18.4991 1.04163 18.3334C1.04163 18.1676 1.10747 18.0086 1.22468 17.8914C1.34189 17.7742 1.50087 17.7084 1.66663 17.7084H2.49996V7.50002C2.49996 5.92835 2.49996 5.14335 2.98829 4.65502C3.47663 4.16669 4.26163 4.16669 5.83329 4.16669H9.16663C10.7383 4.16669 11.5233 4.16669 12.0116 4.65502C12.5 5.14335 12.5 5.92835 12.5 7.50002V17.7084H13.75V7.42502C13.75 6.70419 13.75 6.04252 13.6775 5.50502C13.5983 4.91252 13.4108 4.28585 12.8958 3.77169C12.3808 3.25585 11.7541 3.06835 11.1625 2.98835C10.6316 2.91752 9.98079 2.91669 9.27163 2.91669C9.34163 2.59419 9.45913 2.35002 9.65496 2.15502C10.1433 1.66669 10.9283 1.66669 12.5 1.66669ZM4.37496 6.66669C4.37496 6.50093 4.44081 6.34196 4.55802 6.22475C4.67523 6.10753 4.8342 6.04169 4.99996 6.04169H9.99996C10.1657 6.04169 10.3247 6.10753 10.4419 6.22475C10.5591 6.34196 10.625 6.50093 10.625 6.66669C10.625 6.83245 10.5591 6.99142 10.4419 7.10863C10.3247 7.22584 10.1657 7.29169 9.99996 7.29169H4.99996C4.8342 7.29169 4.67523 7.22584 4.55802 7.10863C4.44081 6.99142 4.37496 6.83245 4.37496 6.66669ZM4.37496 9.16669C4.37496 9.00093 4.44081 8.84196 4.55802 8.72475C4.67523 8.60754 4.8342 8.54169 4.99996 8.54169H9.99996C10.1657 8.54169 10.3247 8.60754 10.4419 8.72475C10.5591 8.84196 10.625 9.00093 10.625 9.16669C10.625 9.33245 10.5591 9.49142 10.4419 9.60863C10.3247 9.72584 10.1657 9.79169 9.99996 9.79169H4.99996C4.8342 9.79169 4.67523 9.72584 4.55802 9.60863C4.44081 9.49142 4.37496 9.33245 4.37496 9.16669ZM4.37496 11.6667C4.37496 11.5009 4.44081 11.342 4.55802 11.2247C4.67523 11.1075 4.8342 11.0417 4.99996 11.0417H9.99996C10.1657 11.0417 10.3247 11.1075 10.4419 11.2247C10.5591 11.342 10.625 11.5009 10.625 11.6667C10.625 11.8324 10.5591 11.9914 10.4419 12.1086C10.3247 12.2258 10.1657 12.2917 9.99996 12.2917H4.99996C4.8342 12.2917 4.67523 12.2258 4.55802 12.1086C4.44081 11.9914 4.37496 11.8324 4.37496 11.6667ZM7.49996 15.2084C7.66572 15.2084 7.82469 15.2742 7.9419 15.3914C8.05911 15.5086 8.12496 15.6676 8.12496 15.8334V17.7084H6.87496V15.8334C6.87496 15.6676 6.94081 15.5086 7.05802 15.3914C7.17523 15.2742 7.3342 15.2084 7.49996 15.2084Z" fill="#FF8B13"/>
</g>
</svg>
