<svg width="20" height="20" viewBox="0 0 20 20" fill="none" xmlns="http://www.w3.org/2000/svg">
<g id="solar:star-circle-bold">
<path id="Vector" fill-rule="evenodd" clip-rule="evenodd" d="M9.99996 18.3334C14.6025 18.3334 18.3333 14.6026 18.3333 10.0001C18.3333 5.39758 14.6025 1.66675 9.99996 1.66675C5.39746 1.66675 1.66663 5.39758 1.66663 10.0001C1.66663 14.6026 5.39746 18.3334 9.99996 18.3334ZM9.05079 7.80258L8.94246 7.99841C8.82163 8.21425 8.76163 8.32175 8.66829 8.39258C8.57496 8.46341 8.45829 8.49008 8.22496 8.54258L8.01329 8.59091C7.19329 8.77591 6.78329 8.86925 6.68579 9.18258C6.58829 9.49675 6.86746 9.82341 7.42663 10.4767L7.57163 10.6459C7.72996 10.8317 7.80913 10.9242 7.84496 11.0392C7.88079 11.1542 7.86913 11.2784 7.84496 11.5259L7.82329 11.7509C7.73829 12.6234 7.69663 13.0592 7.95163 13.2534C8.20663 13.4476 8.59079 13.2701 9.35829 12.9176L9.55746 12.8259C9.77496 12.7259 9.88413 12.6751 9.99996 12.6751C10.1158 12.6751 10.225 12.7251 10.4425 12.8251L10.6416 12.9167C11.4083 13.2709 11.7933 13.4476 12.0483 13.2534C12.3033 13.0592 12.2616 12.6234 12.1766 11.7517L12.155 11.5259C12.1308 11.2784 12.1191 11.1542 12.155 11.0392C12.1908 10.9242 12.27 10.8309 12.4283 10.6459L12.5733 10.4767C13.1316 9.82341 13.4116 9.49675 13.3141 9.18258C13.2166 8.86925 12.8066 8.77591 11.9866 8.59091L11.775 8.54258C11.5416 8.49008 11.425 8.46341 11.3316 8.39258C11.2383 8.32175 11.1783 8.21425 11.0583 7.99841L10.9491 7.80258C10.5266 7.04508 10.3158 6.66675 9.99996 6.66675C9.68413 6.66675 9.47329 7.04508 9.05079 7.80258Z" fill="#FF8B13"/>
</g>
</svg>
