<svg width="20" height="20" viewBox="0 0 20 20" fill="none" xmlns="http://www.w3.org/2000/svg">
<g id="solar:document-text-bold">
<path id="Vector" fill-rule="evenodd" clip-rule="evenodd" d="M3.47667 2.64335C2.5 3.61919 2.5 5.19085 2.5 8.33335V11.6667C2.5 14.8092 2.5 16.3809 3.47667 17.3567C4.45333 18.3325 6.02417 18.3334 9.16667 18.3334H10.8333C13.9758 18.3334 15.5475 18.3334 16.5233 17.3567C17.4992 16.38 17.5 14.8092 17.5 11.6667V8.33335C17.5 5.19085 17.5 3.61919 16.5233 2.64335C15.5467 1.66752 13.9758 1.66669 10.8333 1.66669H9.16667C6.02417 1.66669 4.4525 1.66669 3.47667 2.64335ZM6.04167 6.66669C6.04167 6.50093 6.10751 6.34196 6.22472 6.22475C6.34193 6.10753 6.50091 6.04169 6.66667 6.04169H13.3333C13.4991 6.04169 13.6581 6.10753 13.7753 6.22475C13.8925 6.34196 13.9583 6.50093 13.9583 6.66669C13.9583 6.83245 13.8925 6.99142 13.7753 7.10863C13.6581 7.22584 13.4991 7.29169 13.3333 7.29169H6.66667C6.50091 7.29169 6.34193 7.22584 6.22472 7.10863C6.10751 6.99142 6.04167 6.83245 6.04167 6.66669ZM6.04167 10C6.04167 9.83426 6.10751 9.67529 6.22472 9.55808C6.34193 9.44087 6.50091 9.37502 6.66667 9.37502H13.3333C13.4991 9.37502 13.6581 9.44087 13.7753 9.55808C13.8925 9.67529 13.9583 9.83426 13.9583 10C13.9583 10.1658 13.8925 10.3248 13.7753 10.442C13.6581 10.5592 13.4991 10.625 13.3333 10.625H6.66667C6.50091 10.625 6.34193 10.5592 6.22472 10.442C6.10751 10.3248 6.04167 10.1658 6.04167 10ZM6.66667 12.7084C6.50091 12.7084 6.34193 12.7742 6.22472 12.8914C6.10751 13.0086 6.04167 13.1676 6.04167 13.3334C6.04167 13.4991 6.10751 13.6581 6.22472 13.7753C6.34193 13.8925 6.50091 13.9584 6.66667 13.9584H10.8333C10.9991 13.9584 11.1581 13.8925 11.2753 13.7753C11.3925 13.6581 11.4583 13.4991 11.4583 13.3334C11.4583 13.1676 11.3925 13.0086 11.2753 12.8914C11.1581 12.7742 10.9991 12.7084 10.8333 12.7084H6.66667Z" fill="#FF8B13"/>
</g>
</svg>
