<svg width="16" height="16" viewBox="0 0 16 16" fill="none" xmlns="http://www.w3.org/2000/svg">
<g id="solar:course-down-outline">
<path id="Vector" fill-rule="evenodd" clip-rule="evenodd" d="M0.979301 4.31355C1.07296 4.21983 1.2 4.16712 1.3325 4.16699C1.465 4.16687 1.59213 4.21934 1.68597 4.31289L4.29863 6.91422C4.6413 7.25489 4.8633 7.47422 5.04797 7.61555C5.2213 7.74689 5.30263 7.76222 5.35597 7.76222C5.4093 7.76222 5.4913 7.74755 5.66463 7.61555C5.84997 7.47555 6.0713 7.25555 6.41463 6.91489L6.5973 6.73289C6.91063 6.42222 7.1793 6.15422 7.42397 5.96889C7.68663 5.76955 7.9773 5.61889 8.33663 5.61889C8.6953 5.61889 8.98663 5.76955 9.2493 5.96822C9.49397 6.15422 9.7633 6.42155 10.076 6.73289L14.1666 10.7982V8.30289C14.1666 8.17028 14.2193 8.0431 14.3131 7.94933C14.4068 7.85556 14.534 7.80289 14.6666 7.80289C14.7992 7.80289 14.9264 7.85556 15.0202 7.94933C15.114 8.0431 15.1666 8.17028 15.1666 8.30289V12.0002C15.1666 12.1328 15.114 12.26 15.0202 12.3538C14.9264 12.4475 14.7992 12.5002 14.6666 12.5002H10.9453C10.8127 12.5002 10.6855 12.4475 10.5917 12.3538C10.498 12.26 10.4453 12.1328 10.4453 12.0002C10.4453 11.8676 10.498 11.7404 10.5917 11.6467C10.6855 11.5529 10.8127 11.5002 10.9453 11.5002H13.4546L9.39463 7.46489C9.05197 7.12489 8.82997 6.90489 8.64463 6.76489C8.4713 6.63355 8.39063 6.61889 8.33663 6.61889C8.2833 6.61889 8.20197 6.63355 8.02863 6.76555C7.84397 6.90555 7.62197 7.12489 7.2793 7.46555L7.09663 7.64689C6.7833 7.95822 6.51397 8.22689 6.2693 8.41222C6.00663 8.61155 5.7153 8.76222 5.35597 8.76222C4.99663 8.76222 4.7053 8.61089 4.44263 8.41155C4.19797 8.22555 3.9293 7.95689 3.61597 7.64555L3.59263 7.62289L0.980635 5.02022C0.886824 4.92665 0.833991 4.79966 0.833741 4.66716C0.833491 4.53466 0.885844 4.40748 0.979301 4.31355Z" fill="#4CAF50"/>
</g>
</svg>
