<svg width="16" height="16" viewBox="0 0 16 16" fill="none" xmlns="http://www.w3.org/2000/svg">
<g id="solar:course-up-outline">
<path id="Vector" fill-rule="evenodd" clip-rule="evenodd" d="M10.4453 4.6665C10.4453 4.5339 10.498 4.40672 10.5918 4.31295C10.6856 4.21918 10.8127 4.1665 10.9453 4.1665H14.6667C14.7993 4.1665 14.9265 4.21918 15.0202 4.31295C15.114 4.40672 15.1667 4.5339 15.1667 4.6665V8.36384C15.1667 8.49645 15.114 8.62362 15.0202 8.71739C14.9265 8.81116 14.7993 8.86384 14.6667 8.86384C14.5341 8.86384 14.4069 8.81116 14.3131 8.71739C14.2194 8.62362 14.1667 8.49645 14.1667 8.36384V5.8685L10.076 9.93317C9.76335 10.2438 9.49401 10.5118 9.24935 10.6978C8.98668 10.8965 8.69601 11.0472 8.33668 11.0472C7.97801 11.0472 7.68668 10.8965 7.42401 10.6972C7.17935 10.5118 6.91068 10.2438 6.59735 9.93317L6.41468 9.75117C6.07201 9.4105 5.85001 9.19117 5.66468 9.0505C5.49135 8.9185 5.41001 8.90384 5.35601 8.90384C5.30268 8.90384 5.22135 8.91917 5.04801 9.0505C4.86335 9.19117 4.64135 9.4105 4.29868 9.75184L1.68601 12.3532C1.59107 12.4413 1.46561 12.4892 1.33607 12.4866C1.20654 12.4841 1.08304 12.4314 0.991605 12.3396C0.900167 12.2478 0.847925 12.1241 0.845887 11.9946C0.843849 11.8651 0.892174 11.7398 0.980681 11.6452L3.61601 9.01984C3.92935 8.70917 4.19801 8.4405 4.44268 8.2545C4.70535 8.0545 4.99668 7.9045 5.35601 7.90384C5.71535 7.90384 6.00668 8.0545 6.26935 8.25384C6.51401 8.43984 6.78335 8.70784 7.09601 9.01917L7.27935 9.2005C7.62201 9.54117 7.84401 9.7605 8.02868 9.9005C8.20201 10.0325 8.28335 10.0472 8.33668 10.0472C8.39001 10.0472 8.47135 10.0325 8.64468 9.9005C8.83001 9.7605 9.05135 9.54117 9.39468 9.2005L13.4547 5.16584H10.9453C10.8127 5.16584 10.6856 5.11316 10.5918 5.01939C10.498 4.92562 10.4453 4.79911 10.4453 4.6665Z" fill="#4CAF50"/>
</g>
</svg>
