<svg width="20" height="20" viewBox="0 0 20 20" fill="none" xmlns="http://www.w3.org/2000/svg">
<g id="solar:users-group-rounded-outline">
<path id="Vector" fill-rule="evenodd" clip-rule="evenodd" d="M7.49996 1.0415C6.45014 1.0415 5.44333 1.45854 4.701 2.20087C3.95866 2.9432 3.54163 3.95002 3.54163 4.99984C3.54163 6.04965 3.95866 7.05647 4.701 7.7988C5.44333 8.54113 6.45014 8.95817 7.49996 8.95817C8.54977 8.95817 9.55659 8.54113 10.2989 7.7988C11.0413 7.05647 11.4583 6.04965 11.4583 4.99984C11.4583 3.95002 11.0413 2.9432 10.2989 2.20087C9.55659 1.45854 8.54977 1.0415 7.49996 1.0415ZM4.79163 4.99984C4.79163 4.28154 5.07697 3.59267 5.58488 3.08476C6.09279 2.57685 6.78166 2.2915 7.49996 2.2915C8.21825 2.2915 8.90713 2.57685 9.41504 3.08476C9.92295 3.59267 10.2083 4.28154 10.2083 4.99984C10.2083 5.71813 9.92295 6.40701 9.41504 6.91492C8.90713 7.42283 8.21825 7.70817 7.49996 7.70817C6.78166 7.70817 6.09279 7.42283 5.58488 6.91492C5.07697 6.40701 4.79163 5.71813 4.79163 4.99984Z" fill="#666666"/>
<path id="Vector_2" d="M12.5 1.875C12.3342 1.875 12.1753 1.94085 12.0581 2.05806C11.9408 2.17527 11.875 2.33424 11.875 2.5C11.875 2.66576 11.9408 2.82473 12.0581 2.94194C12.1753 3.05915 12.3342 3.125 12.5 3.125C12.9973 3.125 13.4742 3.32254 13.8258 3.67417C14.1775 4.02581 14.375 4.50272 14.375 5C14.375 5.49728 14.1775 5.97419 13.8258 6.32582C13.4742 6.67746 12.9973 6.875 12.5 6.875C12.3342 6.875 12.1753 6.94085 12.0581 7.05806C11.9408 7.17527 11.875 7.33424 11.875 7.5C11.875 7.66576 11.9408 7.82473 12.0581 7.94194C12.1753 8.05915 12.3342 8.125 12.5 8.125C13.3288 8.125 14.1237 7.79576 14.7097 7.20971C15.2958 6.62366 15.625 5.8288 15.625 5C15.625 4.1712 15.2958 3.37634 14.7097 2.79029C14.1237 2.20424 13.3288 1.875 12.5 1.875Z" fill="#666666"/>
<path id="Vector_3" fill-rule="evenodd" clip-rule="evenodd" d="M3.06496 11.2668C4.23163 10.6002 5.80079 10.2085 7.49996 10.2085C9.19913 10.2085 10.7683 10.6002 11.935 11.2668C13.0833 11.9235 13.9583 12.9252 13.9583 14.1668C13.9583 15.4085 13.0833 16.4102 11.935 17.0668C10.7683 17.7335 9.19913 18.1252 7.49996 18.1252C5.80079 18.1252 4.23163 17.7335 3.06496 17.0668C1.91663 16.4102 1.04163 15.4085 1.04163 14.1668C1.04163 12.9252 1.91663 11.9235 3.06496 11.2668ZM3.68496 12.3527C2.72246 12.9027 2.29163 13.5668 2.29163 14.1668C2.29163 14.7668 2.72246 15.431 3.68496 15.981C4.62996 16.521 5.97746 16.8752 7.49996 16.8752C9.02246 16.8752 10.37 16.521 11.315 15.981C12.2775 15.431 12.7083 14.766 12.7083 14.1668C12.7083 13.5677 12.2775 12.9027 11.315 12.3527C10.37 11.8127 9.02246 11.4585 7.49996 11.4585C5.97746 11.4585 4.62996 11.8127 3.68496 12.3527Z" fill="#666666"/>
<path id="Vector_4" d="M15.1333 11.0559C14.9713 11.0205 14.8019 11.051 14.6623 11.1405C14.5228 11.2301 14.4245 11.3714 14.3891 11.5334C14.3538 11.6954 14.3842 11.8648 14.4738 12.0044C14.5633 12.1439 14.7046 12.2422 14.8666 12.2776C15.5266 12.4217 16.0541 12.6709 16.4025 12.9559C16.7508 13.2409 16.875 13.5201 16.875 13.7501C16.875 13.9584 16.775 14.2042 16.4975 14.4617C16.2183 14.7209 15.7891 14.9601 15.2366 15.1267C15.158 15.1504 15.0848 15.1893 15.0212 15.2412C14.9576 15.2931 14.9049 15.3571 14.866 15.4294C14.8271 15.5017 14.8028 15.5809 14.7946 15.6626C14.7863 15.7443 14.7943 15.8268 14.8179 15.9055C14.8415 15.9841 14.8804 16.0573 14.9324 16.1209C14.9843 16.1845 15.0482 16.2372 15.1205 16.2761C15.1929 16.315 15.2721 16.3393 15.3538 16.3475C15.4355 16.3558 15.518 16.3479 15.5966 16.3242C16.2825 16.1176 16.895 15.7984 17.3483 15.3776C17.8033 14.9551 18.125 14.3992 18.125 13.7501C18.125 13.0292 17.73 12.4267 17.1941 11.9884C16.6575 11.5492 15.935 11.2317 15.1333 11.0559Z" fill="#666666"/>
</g>
</svg>
