<svg width="20" height="20" viewBox="0 0 20 20" fill="none" xmlns="http://www.w3.org/2000/svg">
<g id="solar:share-circle-outline">
<path id="Vector" fill-rule="evenodd" clip-rule="evenodd" d="M13.125 5C13.125 4.1712 12.7958 3.37634 12.2098 2.79029C11.6237 2.20424 10.8288 1.875 10 1.875C9.17124 1.875 8.37638 2.20424 7.79033 2.79029C7.20428 3.37634 6.87504 4.1712 6.87504 5C6.87504 5.8288 7.20428 6.62366 7.79033 7.20971C8.37638 7.79576 9.17124 8.125 10 8.125C10.8288 8.125 11.6237 7.79576 12.2098 7.20971C12.7958 6.62366 13.125 5.8288 13.125 5ZM10 3.125C10.4973 3.125 10.9742 3.32254 11.3259 3.67417C11.6775 4.02581 11.875 4.50272 11.875 5C11.875 5.49728 11.6775 5.97419 11.3259 6.32582C10.9742 6.67746 10.4973 6.875 10 6.875C9.50276 6.875 9.02585 6.67746 8.67422 6.32582C8.32259 5.97419 8.12504 5.49728 8.12504 5C8.12504 4.50272 8.32259 4.02581 8.67422 3.67417C9.02585 3.32254 9.50276 3.125 10 3.125ZM7.70837 15C7.70837 14.1712 7.37913 13.3763 6.79308 12.7903C6.20703 12.2042 5.41218 11.875 4.58337 11.875C3.75457 11.875 2.95972 12.2042 2.37367 12.7903C1.78761 13.3763 1.45837 14.1712 1.45837 15C1.45837 15.8288 1.78761 16.6237 2.37367 17.2097C2.95972 17.7958 3.75457 18.125 4.58337 18.125C5.41218 18.125 6.20703 17.7958 6.79308 17.2097C7.37913 16.6237 7.70837 15.8288 7.70837 15ZM4.58337 13.125C5.08066 13.125 5.55757 13.3225 5.9092 13.6742C6.26083 14.0258 6.45837 14.5027 6.45837 15C6.45837 15.4973 6.26083 15.9742 5.9092 16.3258C5.55757 16.6775 5.08066 16.875 4.58337 16.875C4.08609 16.875 3.60918 16.6775 3.25755 16.3258C2.90592 15.9742 2.70837 15.4973 2.70837 15C2.70837 14.5027 2.90592 14.0258 3.25755 13.6742C3.60918 13.3225 4.08609 13.125 4.58337 13.125ZM15.4167 11.875C16.2455 11.875 17.0404 12.2042 17.6264 12.7903C18.2125 13.3763 18.5417 14.1712 18.5417 15C18.5417 15.8288 18.2125 16.6237 17.6264 17.2097C17.0404 17.7958 16.2455 18.125 15.4167 18.125C14.5879 18.125 13.7931 17.7958 13.207 17.2097C12.6209 16.6237 12.2917 15.8288 12.2917 15C12.2917 14.1712 12.6209 13.3763 13.207 12.7903C13.7931 12.2042 14.5879 11.875 15.4167 11.875ZM17.2917 15C17.2917 14.5027 17.0942 14.0258 16.7425 13.6742C16.3909 13.3225 15.914 13.125 15.4167 13.125C14.9194 13.125 14.4425 13.3225 14.0909 13.6742C13.7393 14.0258 13.5417 14.5027 13.5417 15C13.5417 15.4973 13.7393 15.9742 14.0909 16.3258C14.4425 16.6775 14.9194 16.875 15.4167 16.875C15.914 16.875 16.3909 16.6775 16.7425 16.3258C17.0942 15.9742 17.2917 15.4973 17.2917 15Z" fill="#666666"/>
<path id="Vector_2" d="M6.00421 6.30156C6.12539 6.19101 6.19825 6.03725 6.20707 5.87346C6.21589 5.70967 6.15997 5.54897 6.05137 5.42604C5.94277 5.30311 5.79019 5.22781 5.62656 5.21637C5.46293 5.20493 5.30136 5.25827 5.17671 5.3649C4.40011 6.04846 3.77823 6.8898 3.35259 7.83277C2.92695 8.77574 2.70732 9.79865 2.70838 10.8332C2.70838 10.999 2.77423 11.158 2.89144 11.2752C3.00865 11.3924 3.16762 11.4582 3.33338 11.4582C3.49914 11.4582 3.65811 11.3924 3.77532 11.2752C3.89253 11.158 3.95838 10.999 3.95838 10.8332C3.95729 9.9758 4.13923 9.12801 4.49204 8.34652C4.84484 7.56503 5.36038 6.86785 6.00421 6.30156ZM14.8234 5.3649C14.6987 5.25827 14.5372 5.20493 14.3735 5.21637C14.2099 5.22781 14.0573 5.30311 13.9487 5.42604C13.8401 5.54897 13.7842 5.70967 13.793 5.87346C13.8018 6.03725 13.8747 6.19101 13.9959 6.30156C14.6397 6.86785 15.1552 7.56503 15.5081 8.34652C15.8609 9.12801 16.0428 9.9758 16.0417 10.8332C16.0417 10.999 16.1076 11.158 16.2248 11.2752C16.342 11.3924 16.5009 11.4582 16.6667 11.4582C16.8325 11.4582 16.9914 11.3924 17.1087 11.2752C17.2259 11.158 17.2917 10.999 17.2917 10.8332C17.2928 9.79865 17.0731 8.77574 16.6475 7.83277C16.2219 6.8898 15.6 6.04846 14.8234 5.3649ZM8.48921 16.6849C8.40891 16.6618 8.32478 16.655 8.2418 16.6649C8.15882 16.6748 8.07868 16.7013 8.00611 16.7428C7.93355 16.7842 7.87004 16.8398 7.81933 16.9063C7.76863 16.9727 7.73177 17.0486 7.71092 17.1296C7.69007 17.2105 7.68567 17.2948 7.69797 17.3774C7.71027 17.4601 7.73902 17.5395 7.78253 17.6108C7.82604 17.6822 7.88341 17.7441 7.95126 17.7929C8.01911 17.8417 8.09605 17.8764 8.17754 17.8949C9.37318 18.2017 10.6269 18.2017 11.8225 17.8949C11.904 17.8764 11.981 17.8417 12.0488 17.7929C12.1167 17.7441 12.1741 17.6822 12.2176 17.6108C12.2611 17.5395 12.2898 17.4601 12.3021 17.3774C12.3144 17.2948 12.31 17.2105 12.2892 17.1296C12.2683 17.0486 12.2315 16.9727 12.1808 16.9063C12.1301 16.8398 12.0665 16.7842 11.994 16.7428C11.9214 16.7013 11.8413 16.6748 11.7583 16.6649C11.6753 16.655 11.5912 16.6618 11.5109 16.6849C11.0172 16.8113 10.5096 16.8751 10 16.8749C9.49046 16.8751 8.98288 16.8113 8.48921 16.6849Z" fill="#666666"/>
</g>
</svg>
