<svg width="16" height="16" viewBox="0 0 16 16" fill="none" xmlns="http://www.w3.org/2000/svg">
<path d="M6.36671 10.1L12.0167 4.45C12.15 4.31667 12.3056 4.25 12.4834 4.25C12.6611 4.25 12.8167 4.31667 12.95 4.45C13.0834 4.58333 13.15 4.74178 13.15 4.92533C13.15 5.10889 13.0834 5.26711 12.95 5.4L6.83337 11.5333C6.70004 11.6667 6.54448 11.7333 6.36671 11.7333C6.18893 11.7333 6.03337 11.6667 5.90004 11.5333L3.03337 8.66667C2.90004 8.53333 2.83604 8.37511 2.84137 8.192C2.84671 8.00889 2.91626 7.85044 3.05004 7.71667C3.18382 7.58289 3.34226 7.51622 3.52537 7.51667C3.70848 7.51711 3.86671 7.58378 4.00004 7.71667L6.36671 10.1Z" fill="white"/>
</svg>
