<svg width="16" height="16" viewBox="0 0 16 16" fill="none" xmlns="http://www.w3.org/2000/svg">
<g id="fluent:arrow-swap-28-filled">
<path id="Vector" d="M9.31032 2.11831C9.20623 2.01054 9.14863 1.86619 9.14993 1.71637C9.15124 1.56654 9.21133 1.42322 9.31728 1.31727C9.42323 1.21132 9.56655 1.15123 9.71638 1.14992C9.8662 1.14862 10.0105 1.20622 10.1183 1.31031L12.9755 4.16745C13.0826 4.27461 13.1428 4.41993 13.1428 4.57145C13.1428 4.72297 13.0826 4.86829 12.9755 4.97545L10.1183 7.83259C10.0105 7.93668 9.8662 7.99428 9.71638 7.99298C9.56655 7.99168 9.42323 7.93158 9.31728 7.82563C9.21133 7.71969 9.15124 7.57636 9.14993 7.42654C9.14863 7.27671 9.20623 7.13237 9.31032 7.02459L11.192 5.14288H3.42861C3.27705 5.14288 3.13171 5.08268 3.02455 4.97551C2.91738 4.86835 2.85718 4.723 2.85718 4.57145C2.85718 4.4199 2.91738 4.27455 3.02455 4.16739C3.13171 4.06023 3.27705 4.00002 3.42861 4.00002H11.192L9.31032 2.11831ZM6.68975 8.97545C6.79384 8.86768 6.85144 8.72333 6.85013 8.57351C6.84883 8.42368 6.78874 8.28036 6.68279 8.17441C6.57684 8.06846 6.43352 8.00837 6.28369 8.00707C6.13387 8.00576 5.98952 8.06336 5.88175 8.16745L3.02461 11.0246C2.91748 11.1318 2.8573 11.2771 2.8573 11.4286C2.8573 11.5801 2.91748 11.7254 3.02461 11.8326L5.88175 14.6897C5.98952 14.7938 6.13387 14.8514 6.28369 14.8501C6.43352 14.8488 6.57684 14.7887 6.68279 14.6828C6.78874 14.5768 6.84883 14.4335 6.85013 14.2837C6.85144 14.1339 6.79384 13.9895 6.68975 13.8817L4.80803 12H12.5715C12.723 12 12.8684 11.9398 12.9755 11.8327C13.0827 11.7255 13.1429 11.5801 13.1429 11.4286C13.1429 11.277 13.0827 11.1317 12.9755 11.0245C12.8684 10.9174 12.723 10.8572 12.5715 10.8572H4.80803L6.68975 8.97545Z" fill="white"/>
</g>
</svg>
