<svg width="16" height="16" viewBox="0 0 16 16" fill="none" xmlns="http://www.w3.org/2000/svg">
<g id="solar:filter-linear">
<path id="Vector" d="M12.6667 2H3.33337C2.39071 2 1.91937 2 1.62671 2.27467C1.33404 2.54933 1.33337 2.992 1.33337 3.87667V4.33667C1.33337 5.028 1.33337 5.374 1.50671 5.66067C1.68004 5.94733 1.99537 6.126 2.62804 6.482L4.57004 7.57533C4.99404 7.814 5.20671 7.93333 5.35871 8.06533C5.67471 8.33933 5.86937 8.662 5.95737 9.05867C6.00004 9.248 6.00004 9.47067 6.00004 9.91533V11.6953C6.00004 12.3013 6.00004 12.6047 6.16804 12.8407C6.33604 13.0773 6.63471 13.194 7.23071 13.4273C8.48337 13.9167 9.10937 14.1613 9.55471 13.8827C10 13.604 10 12.968 10 11.6947V9.91467C10 9.47067 10 9.248 10.0427 9.058C10.1264 8.66944 10.3373 8.31989 10.642 8.06467C10.7934 7.93333 11.006 7.814 11.43 7.57467L13.372 6.48133C14.004 6.126 14.3207 5.948 14.4934 5.66133C14.6667 5.37467 14.6667 5.028 14.6667 4.336V3.876C14.6667 2.992 14.6667 2.54933 14.3734 2.27467C14.0814 2 13.61 2 12.6667 2Z" stroke="black"/>
</g>
</svg>
