<svg width="20" height="20" viewBox="0 0 20 20" fill="none" xmlns="http://www.w3.org/2000/svg">
<g id="solar:home-2-linear" clip-path="url(#clip0_53_337)">
<g id="Group">
<path id="Vector" d="M1.66663 10.1698C1.66663 8.26234 1.66663 7.309 2.09996 6.519C2.53163 5.72817 3.32246 5.23817 4.90329 4.2565L6.56996 3.22234C8.24079 2.18484 9.07663 1.6665 9.99996 1.6665C10.9233 1.6665 11.7583 2.18484 13.43 3.22234L15.0966 4.2565C16.6775 5.23817 17.4683 5.72817 17.9008 6.519C18.3333 7.30984 18.3333 8.26234 18.3333 10.169V11.4373C18.3333 14.6873 18.3333 16.3132 17.3566 17.3232C16.38 18.3332 14.8091 18.3332 11.6666 18.3332H8.33329C5.19079 18.3332 3.61913 18.3332 2.64329 17.3232C1.66746 16.3132 1.66663 14.6882 1.66663 11.4373V10.1698Z" stroke="#666666" stroke-width="1.5"/>
<path id="Vector_2" d="M10 12.5V15" stroke="#666666" stroke-width="1.5" stroke-linecap="round"/>
</g>
</g>
<defs>
<clipPath id="clip0_53_337">
<rect width="20" height="20" fill="white"/>
</clipPath>
</defs>
</svg>
