<svg width="20" height="20" viewBox="0 0 20 20" fill="none" xmlns="http://www.w3.org/2000/svg">
<g id="solar:suitcase-linear">
<g id="Group">
<path id="Vector" d="M13.3333 4.99984C13.3333 3.42817 13.3333 2.64317 12.845 2.15484C12.3566 1.6665 11.5716 1.6665 9.99996 1.6665C8.42829 1.6665 7.64329 1.6665 7.15496 2.15484C6.66663 2.64317 6.66663 3.42817 6.66663 4.99984M1.66663 11.6665C1.66663 8.524 1.66663 6.95234 2.64329 5.9765C3.61996 5.00067 5.19079 4.99984 8.33329 4.99984H11.6666C14.8091 4.99984 16.3808 4.99984 17.3566 5.9765C18.3325 6.95317 18.3333 8.524 18.3333 11.6665C18.3333 14.809 18.3333 16.3807 17.3566 17.3565C16.38 18.3323 14.8091 18.3332 11.6666 18.3332H8.33329C5.19079 18.3332 3.61913 18.3332 2.64329 17.3565C1.66746 16.3798 1.66663 14.809 1.66663 11.6665Z" stroke="#666666"/>
<path id="Vector_2" d="M14.1666 7.49984C14.1666 7.72085 14.0788 7.93281 13.9225 8.08909C13.7662 8.24537 13.5543 8.33317 13.3333 8.33317C13.1122 8.33317 12.9003 8.24537 12.744 8.08909C12.5877 7.93281 12.4999 7.72085 12.4999 7.49984C12.4999 7.27882 12.5877 7.06686 12.744 6.91058C12.9003 6.7543 13.1122 6.6665 13.3333 6.6665C13.5543 6.6665 13.7662 6.7543 13.9225 6.91058C14.0788 7.06686 14.1666 7.27882 14.1666 7.49984ZM7.49992 7.49984C7.49992 7.72085 7.41212 7.93281 7.25584 8.08909C7.09956 8.24537 6.8876 8.33317 6.66659 8.33317C6.44557 8.33317 6.23361 8.24537 6.07733 8.08909C5.92105 7.93281 5.83325 7.72085 5.83325 7.49984C5.83325 7.27882 5.92105 7.06686 6.07733 6.91058C6.23361 6.7543 6.44557 6.6665 6.66659 6.6665C6.8876 6.6665 7.09956 6.7543 7.25584 6.91058C7.41212 7.06686 7.49992 7.27882 7.49992 7.49984Z" fill="#666666"/>
</g>
</g>
</svg>
