<svg width="20" height="20" viewBox="0 0 20 20" fill="none" xmlns="http://www.w3.org/2000/svg">
<g id="solar:buildings-outline">
<path id="Vector" fill-rule="evenodd" clip-rule="evenodd" d="M12.4566 1.0415H14.21C14.9591 1.0415 15.5833 1.0415 16.0783 1.10817C16.6016 1.17817 17.0741 1.33317 17.4533 1.71234C17.8333 2.09234 17.9883 2.56484 18.0583 3.08734C18.125 3.58317 18.125 4.20817 18.125 4.9565V17.7082H18.3333C18.4991 17.7082 18.658 17.774 18.7752 17.8912C18.8924 18.0084 18.9583 18.1674 18.9583 18.3332C18.9583 18.4989 18.8924 18.6579 18.7752 18.7751C18.658 18.8923 18.4991 18.9582 18.3333 18.9582H1.66663C1.50087 18.9582 1.34189 18.8923 1.22468 18.7751C1.10747 18.6579 1.04163 18.4989 1.04163 18.3332C1.04163 18.1674 1.10747 18.0084 1.22468 17.8912C1.34189 17.774 1.50087 17.7082 1.66663 17.7082H1.87496V7.4565C1.87496 6.70817 1.87496 6.08317 1.94163 5.58817C2.01163 5.06484 2.16663 4.59234 2.54579 4.21317C2.92579 3.83317 3.39829 3.67817 3.92079 3.60817C4.41663 3.5415 5.04163 3.5415 5.78996 3.5415H8.56496C8.60746 2.81317 8.74246 2.18317 9.21246 1.71234C9.59246 1.33317 10.065 1.179 10.5875 1.10817C11.0833 1.0415 11.7083 1.0415 12.4566 1.0415ZM9.17246 4.7915H5.83329C5.02996 4.7915 4.48996 4.79317 4.08746 4.84734C3.70329 4.899 3.53829 4.98817 3.42996 5.09734C3.32163 5.2065 3.23246 5.36984 3.17996 5.754C3.12746 6.1565 3.12496 6.6965 3.12496 7.49984V17.7082H6.87496V15.8332C6.87496 15.6674 6.94081 15.5084 7.05802 15.3912C7.17523 15.274 7.3342 15.2082 7.49996 15.2082C7.66572 15.2082 7.82469 15.274 7.9419 15.3912C8.05911 15.5084 8.12496 15.6674 8.12496 15.8332V17.7082H11.875V7.49984C11.875 6.6965 11.8733 6.1565 11.82 5.754C11.7675 5.36984 11.6783 5.20484 11.57 5.0965C11.4616 4.98817 11.2966 4.899 10.9116 4.8465C10.5108 4.79317 9.97246 4.7915 9.17246 4.7915ZM13.125 17.7082V7.4565C13.125 6.70817 13.125 6.08317 13.0583 5.58817C12.9883 5.06484 12.8333 4.59234 12.4533 4.21317C12.0741 3.83317 11.6016 3.67817 11.0783 3.60817C10.7241 3.56067 10.3033 3.5465 9.81996 3.54317C9.86163 2.95984 9.95329 2.74067 10.0966 2.5965C10.205 2.48817 10.37 2.399 10.755 2.3465C11.1566 2.29317 11.6966 2.2915 12.5 2.2915H14.1666C14.97 2.2915 15.51 2.29317 15.9125 2.34734C16.2966 2.399 16.4616 2.48817 16.57 2.59734C16.6783 2.7065 16.7675 2.86984 16.82 3.254C16.8733 3.6565 16.875 4.1965 16.875 4.99984V17.7082H13.125ZM4.37496 6.6665C4.37496 6.50074 4.44081 6.34177 4.55802 6.22456C4.67523 6.10735 4.8342 6.0415 4.99996 6.0415H9.99996C10.1657 6.0415 10.3247 6.10735 10.4419 6.22456C10.5591 6.34177 10.625 6.50074 10.625 6.6665C10.625 6.83226 10.5591 6.99123 10.4419 7.10845C10.3247 7.22566 10.1657 7.2915 9.99996 7.2915H4.99996C4.8342 7.2915 4.67523 7.22566 4.55802 7.10845C4.44081 6.99123 4.37496 6.83226 4.37496 6.6665ZM4.37496 9.1665C4.37496 9.00074 4.44081 8.84177 4.55802 8.72456C4.67523 8.60735 4.8342 8.5415 4.99996 8.5415H9.99996C10.1657 8.5415 10.3247 8.60735 10.4419 8.72456C10.5591 8.84177 10.625 9.00074 10.625 9.1665C10.625 9.33226 10.5591 9.49123 10.4419 9.60845C10.3247 9.72566 10.1657 9.7915 9.99996 9.7915H4.99996C4.8342 9.7915 4.67523 9.72566 4.55802 9.60845C4.44081 9.49123 4.37496 9.33226 4.37496 9.1665ZM4.37496 11.6665C4.37496 11.5007 4.44081 11.3418 4.55802 11.2246C4.67523 11.1074 4.8342 11.0415 4.99996 11.0415H9.99996C10.1657 11.0415 10.3247 11.1074 10.4419 11.2246C10.5591 11.3418 10.625 11.5007 10.625 11.6665C10.625 11.8323 10.5591 11.9912 10.4419 12.1084C10.3247 12.2257 10.1657 12.2915 9.99996 12.2915H4.99996C4.8342 12.2915 4.67523 12.2257 4.55802 12.1084C4.44081 11.9912 4.37496 11.8323 4.37496 11.6665Z" fill="#666666"/>
</g>
</svg>
