<svg width="16" height="16" viewBox="0 0 16 16" fill="none" xmlns="http://www.w3.org/2000/svg">
<g id="fluent:add-32-filled">
<path id="Vector" d="M8 1.375C8.345 1.375 8.625 1.655 8.625 2V7.375H14C14.1658 7.375 14.3247 7.44085 14.4419 7.55806C14.5592 7.67527 14.625 7.83424 14.625 8C14.625 8.16576 14.5592 8.32473 14.4419 8.44194C14.3247 8.55915 14.1658 8.625 14 8.625H8.625V14C8.625 14.1658 8.55915 14.3247 8.44194 14.4419C8.32473 14.5592 8.16576 14.625 8 14.625C7.83424 14.625 7.67527 14.5592 7.55806 14.4419C7.44085 14.3247 7.375 14.1658 7.375 14V8.625H2C1.83424 8.625 1.67527 8.55915 1.55806 8.44194C1.44085 8.32473 1.375 8.16576 1.375 8C1.375 7.83424 1.44085 7.67527 1.55806 7.55806C1.67527 7.44085 1.83424 7.375 2 7.375H7.375V2C7.375 1.655 7.655 1.375 8 1.375Z" fill="white"/>
</g>
</svg>
