<svg width="20" height="20" viewBox="0 0 20 20" fill="none" xmlns="http://www.w3.org/2000/svg">
<g id="solar:star-circle-linear">
<g id="Group">
<path id="Vector" d="M9.99996 18.3332C14.6023 18.3332 18.3333 14.6022 18.3333 9.99984C18.3333 5.39746 14.6023 1.6665 9.99996 1.6665C5.39759 1.6665 1.66663 5.39746 1.66663 9.99984C1.66663 14.6022 5.39759 18.3332 9.99996 18.3332Z" stroke="#666666"/>
<path id="Vector_2" d="M8.81414 6.8365C9.34164 5.88984 9.6058 5.4165 9.99997 5.4165C10.3941 5.4165 10.6583 5.88984 11.1858 6.8365L11.3225 7.0815C11.4725 7.35067 11.5475 7.48484 11.6641 7.57317C11.7808 7.66234 11.9275 7.69567 12.2183 7.7615L12.4833 7.8215C13.5083 8.05317 14.0208 8.169 14.1425 8.5615C14.265 8.95317 13.915 9.3615 13.2166 10.179L13.0358 10.3907C12.8375 10.6223 12.7383 10.739 12.6941 10.8823C12.6483 11.0257 12.6633 11.1807 12.6941 11.4907L12.7208 11.7723C12.8266 12.8623 12.8791 13.4073 12.56 13.6498C12.2408 13.8915 11.7616 13.6715 10.8016 13.2298L10.5533 13.1148C10.2808 12.9898 10.145 12.9265 9.99997 12.9265C9.8558 12.9265 9.71914 12.9898 9.44664 13.1148L9.1983 13.2298C8.2383 13.6715 7.75914 13.8923 7.43997 13.6498C7.1208 13.4082 7.1733 12.8623 7.27914 11.7723L7.3058 11.4907C7.33664 11.1807 7.35164 11.0257 7.3058 10.8823C7.26164 10.739 7.16247 10.6223 6.96414 10.3907L6.7833 10.179C6.08497 9.36234 5.73497 8.954 5.85747 8.5615C5.97914 8.16984 6.4908 8.05317 7.5158 7.8215L7.78164 7.7615C8.0733 7.69484 8.2183 7.66234 8.3358 7.574C8.45247 7.48484 8.52747 7.35067 8.67747 7.08234L8.81414 6.8365Z" stroke="#666666"/>
</g>
</g>
</svg>
