<svg width="20" height="20" viewBox="0 0 20 20" fill="none" xmlns="http://www.w3.org/2000/svg">
<g id="solar:settings-outline">
<g id="Group">
<path id="Vector" fill-rule="evenodd" clip-rule="evenodd" d="M10 6.875C9.1712 6.875 8.37634 7.20424 7.79029 7.79029C7.20424 8.37634 6.875 9.1712 6.875 10C6.875 10.8288 7.20424 11.6237 7.79029 12.2097C8.37634 12.7958 9.1712 13.125 10 13.125C10.8288 13.125 11.6237 12.7958 12.2097 12.2097C12.7958 11.6237 13.125 10.8288 13.125 10C13.125 9.1712 12.7958 8.37634 12.2097 7.79029C11.6237 7.20424 10.8288 6.875 10 6.875ZM8.125 10C8.125 9.50272 8.32254 9.02581 8.67417 8.67417C9.02581 8.32254 9.50272 8.125 10 8.125C10.4973 8.125 10.9742 8.32254 11.3258 8.67417C11.6775 9.02581 11.875 9.50272 11.875 10C11.875 10.4973 11.6775 10.9742 11.3258 11.3258C10.9742 11.6775 10.4973 11.875 10 11.875C9.50272 11.875 9.02581 11.6775 8.67417 11.3258C8.32254 10.9742 8.125 10.4973 8.125 10Z" fill="#666666"/>
<path id="Vector_2" fill-rule="evenodd" clip-rule="evenodd" d="M9.97918 1.0415C9.60835 1.0415 9.29918 1.0415 9.04585 1.05817C8.78686 1.0686 8.53142 1.12211 8.29002 1.2165C8.01189 1.33158 7.75916 1.50031 7.54626 1.71308C7.33335 1.92584 7.16444 2.17846 7.04918 2.4565C6.92835 2.74817 6.89585 3.0565 6.88252 3.3915C6.88103 3.51399 6.84853 3.6341 6.78805 3.74063C6.72758 3.84715 6.6411 3.93662 6.53668 4.00067C6.42904 4.05927 6.30829 4.08963 6.18573 4.0889C6.06317 4.08817 5.94279 4.05638 5.83585 3.9965C5.53918 3.83984 5.25585 3.714 4.94252 3.67234C4.64414 3.63309 4.34095 3.653 4.05026 3.73092C3.75958 3.80885 3.48709 3.94327 3.24835 4.1265C3.04618 4.28857 2.87241 4.48318 2.73418 4.70234C2.59252 4.914 2.43752 5.1815 2.25252 5.50234L2.23168 5.539C2.04585 5.85984 1.89168 6.12734 1.78002 6.35567C1.66335 6.594 1.57168 6.829 1.53835 7.089C1.45885 7.6915 1.62192 8.3009 1.99168 8.78317C2.18418 9.034 2.43502 9.2165 2.71835 9.39484C2.82388 9.45741 2.9118 9.54573 2.97389 9.65154C3.03598 9.75736 3.0702 9.87719 3.07335 9.99984C3.0702 10.1225 3.03598 10.2423 2.97389 10.3481C2.9118 10.4539 2.82388 10.5423 2.71835 10.6048C2.43502 10.7832 2.18502 10.9657 1.99168 11.2165C1.80845 11.4552 1.67403 11.7277 1.5961 12.0184C1.51818 12.3091 1.49827 12.6123 1.53752 12.9107C1.57168 13.1707 1.66252 13.4057 1.77918 13.644C1.89168 13.8723 2.04585 14.1398 2.23168 14.4607L2.25252 14.4973C2.43752 14.8182 2.59252 15.0857 2.73418 15.2973C2.88168 15.5165 3.04002 15.714 3.24835 15.8723C3.48702 16.0557 3.75949 16.1903 4.05017 16.2684C4.34086 16.3464 4.64408 16.3665 4.94252 16.3273C5.25585 16.2857 5.53918 16.1607 5.83585 16.0032C5.94269 15.9434 6.06291 15.9117 6.18531 15.911C6.30771 15.9103 6.42831 15.9405 6.53585 15.999C6.64111 16.0623 6.72835 16.1515 6.7892 16.2582C6.85005 16.3648 6.88247 16.4854 6.88335 16.6082C6.89585 16.9432 6.92835 17.2515 7.05002 17.5432C7.16509 17.8213 7.33383 18.074 7.54659 18.2869C7.75935 18.4998 8.01197 18.6687 8.29002 18.784C8.53168 18.884 8.78168 18.9232 9.04585 18.9407C9.29918 18.9582 9.60835 18.9582 9.97918 18.9582H10.0208C10.3917 18.9582 10.7009 18.9582 10.9542 18.9415C11.2192 18.9232 11.4683 18.884 11.71 18.7832C11.9881 18.6681 12.2409 18.4994 12.4538 18.2866C12.6667 18.0738 12.8356 17.8212 12.9509 17.5432C13.0717 17.2515 13.1042 16.9432 13.1175 16.6082C13.1189 16.4855 13.1513 16.3653 13.2118 16.2586C13.2723 16.1519 13.3588 16.0623 13.4634 15.9982C13.5711 15.9397 13.6918 15.9095 13.8144 15.9104C13.937 15.9112 14.0573 15.9432 14.1642 16.0032C14.4608 16.1598 14.7442 16.2857 15.0575 16.3265C15.66 16.406 16.2694 16.2429 16.7517 15.8732C16.96 15.7132 17.1184 15.5165 17.2659 15.2973C17.4075 15.0857 17.5625 14.8182 17.7475 14.4973L17.7684 14.4607C17.9542 14.1398 18.1084 13.8723 18.22 13.644C18.3367 13.4057 18.4283 13.1698 18.4617 12.9107C18.5412 12.3082 18.3781 11.6988 18.0084 11.2165C17.8159 10.9657 17.565 10.7832 17.2817 10.6048C17.1762 10.5423 17.0882 10.4539 17.0261 10.3481C16.9641 10.2423 16.9298 10.1225 16.9267 9.99984C16.9267 9.76817 17.0534 9.53817 17.2817 9.39484C17.565 9.2165 17.815 9.034 18.0084 8.78317C18.1916 8.54443 18.326 8.27194 18.4039 7.98126C18.4819 7.69057 18.5018 7.38738 18.4625 7.089C18.4232 6.83283 18.3416 6.585 18.2208 6.35567C18.0785 6.07882 17.9276 5.80646 17.7684 5.539L17.7475 5.50234C17.5953 5.23074 17.4347 4.96394 17.2659 4.70234C17.1275 4.48347 16.9538 4.28915 16.7517 4.12734C16.513 3.94396 16.2405 3.80939 15.9499 3.73132C15.6592 3.65325 15.356 3.63321 15.0575 3.67234C14.7442 3.714 14.4608 3.839 14.1642 3.9965C14.0573 4.05623 13.9371 4.08794 13.8147 4.08867C13.6923 4.0894 13.5717 4.05912 13.4642 4.00067C13.3595 3.93682 13.2727 3.84744 13.2119 3.7409C13.1511 3.63436 13.1183 3.51415 13.1167 3.3915C13.1042 3.0565 13.0717 2.74817 12.95 2.4565C12.8349 2.17838 12.6662 1.92565 12.4534 1.71274C12.2407 1.49984 11.9881 1.33093 11.71 1.21567C11.4683 1.11567 11.2184 1.0765 10.9542 1.059C10.7009 1.0415 10.3917 1.0415 10.0208 1.0415H9.97918ZM8.76835 2.37067C8.83252 2.344 8.93002 2.31984 9.13085 2.30567C9.33668 2.2915 9.60335 2.2915 10 2.2915C10.3967 2.2915 10.6634 2.2915 10.8692 2.30567C11.07 2.31984 11.1675 2.344 11.2317 2.37067C11.4875 2.4765 11.69 2.679 11.7958 2.93484C11.8292 3.01484 11.8567 3.14067 11.8675 3.43817C11.8925 4.09817 12.2333 4.734 12.8384 5.08317C13.4433 5.43234 14.1642 5.40984 14.7484 5.1015C15.0117 4.96234 15.1342 4.92317 15.2208 4.91234C15.4947 4.87616 15.7716 4.95019 15.9908 5.11817C16.0458 5.16067 16.1159 5.23317 16.2284 5.39984C16.3442 5.5715 16.4775 5.80234 16.6758 6.14567C16.8742 6.489 17.0067 6.72067 17.0975 6.90567C17.1867 7.0865 17.2142 7.18317 17.2225 7.25234C17.2587 7.52614 17.1847 7.80311 17.0167 8.02234C16.9634 8.0915 16.8684 8.17817 16.6167 8.3365C16.0567 8.68817 15.6767 9.3015 15.6767 9.99984C15.6767 10.6982 16.0567 11.3115 16.6167 11.6632C16.8684 11.8215 16.9634 11.9082 17.0167 11.9773C17.185 12.1965 17.2583 12.4732 17.2225 12.7473C17.2142 12.8165 17.1859 12.914 17.0975 13.094C17.0067 13.2798 16.8742 13.5107 16.6758 13.854C16.4775 14.1973 16.3434 14.4282 16.2284 14.5998C16.1159 14.7665 16.0458 14.839 15.9908 14.8815C15.7716 15.0495 15.4947 15.1235 15.2208 15.0873C15.1342 15.0765 15.0125 15.0373 14.7484 14.8982C14.165 14.5898 13.4433 14.5665 12.8384 14.9157C12.2333 15.2648 11.8925 15.9015 11.8675 16.5615C11.8567 16.859 11.8292 16.9848 11.7958 17.0648C11.7435 17.1913 11.6667 17.3063 11.5699 17.4031C11.4731 17.4999 11.3582 17.5767 11.2317 17.629C11.1675 17.6557 11.07 17.6798 10.8692 17.694C10.6634 17.7082 10.3967 17.7082 10 17.7082C9.60335 17.7082 9.33668 17.7082 9.13085 17.694C8.93002 17.6798 8.83252 17.6557 8.76835 17.629C8.64185 17.5767 8.52692 17.4999 8.43011 17.4031C8.33331 17.3063 8.25653 17.1913 8.20418 17.0648C8.17085 16.9848 8.14335 16.859 8.13252 16.5615C8.10752 15.9015 7.76668 15.2657 7.16168 14.9165C6.55668 14.5673 5.83585 14.5898 5.25168 14.8982C4.98835 15.0373 4.86585 15.0765 4.77918 15.0873C4.50538 15.1235 4.22841 15.0495 4.00918 14.8815C3.95418 14.839 3.88418 14.7665 3.77168 14.5998C3.61492 14.3559 3.46568 14.1071 3.32418 13.854C3.12585 13.5107 2.99335 13.279 2.90252 13.094C2.81335 12.9132 2.78585 12.8165 2.77752 12.7473C2.74134 12.4735 2.81537 12.1966 2.98335 11.9773C3.03668 11.9082 3.13168 11.8215 3.38335 11.6632C3.94335 11.3115 4.32335 10.6982 4.32335 9.99984C4.32335 9.3015 3.94335 8.68817 3.38335 8.3365C3.13168 8.17817 3.03668 8.0915 2.98335 8.02234C2.81537 7.80311 2.74134 7.52614 2.77752 7.25234C2.78585 7.18317 2.81418 7.08567 2.90252 6.90567C2.99335 6.71984 3.12585 6.489 3.32418 6.14567C3.52252 5.80234 3.65668 5.5715 3.77168 5.39984C3.88418 5.23317 3.95418 5.16067 4.00918 5.11817C4.22841 4.95019 4.50538 4.87616 4.77918 4.91234C4.86585 4.92317 4.98752 4.96234 5.25168 5.1015C5.83502 5.40984 6.55668 5.43317 7.16168 5.08317C7.76668 4.734 8.10752 4.09817 8.13252 3.43817C8.14335 3.14067 8.17085 3.01484 8.20418 2.93484C8.31002 2.679 8.51252 2.4765 8.76835 2.37067Z" fill="#666666"/>
</g>
</g>
</svg>
