<svg width="20" height="20" viewBox="0 0 20 20" fill="none" xmlns="http://www.w3.org/2000/svg">
<g id="solar:document-text-linear">
<g id="Group">
<path id="Vector" d="M2.5 8.33317C2.5 5.19067 2.5 3.619 3.47667 2.64317C4.45333 1.66734 6.02417 1.6665 9.16667 1.6665H10.8333C13.9758 1.6665 15.5475 1.6665 16.5233 2.64317C17.4992 3.61984 17.5 5.19067 17.5 8.33317V11.6665C17.5 14.809 17.5 16.3807 16.5233 17.3565C15.5467 18.3323 13.9758 18.3332 10.8333 18.3332H9.16667C6.02417 18.3332 4.4525 18.3332 3.47667 17.3565C2.50083 16.3798 2.5 14.809 2.5 11.6665V8.33317Z" stroke="#666666"/>
<path id="Vector_2" d="M6.66663 9.99984H13.3333M6.66663 6.6665H13.3333M6.66663 13.3332H10.8333" stroke="#666666" stroke-linecap="round"/>
</g>
</g>
</svg>
