<svg width="16" height="16" viewBox="0 0 16 16" fill="none" xmlns="http://www.w3.org/2000/svg">
<g id="solar:upload-minimalistic-bold">
<path id="Vector" d="M8.36931 1.6626C8.32246 1.61136 8.26546 1.57045 8.20193 1.54245C8.1384 1.51446 8.06973 1.5 8.00031 1.5C7.93088 1.5 7.86222 1.51446 7.79869 1.54245C7.73516 1.57045 7.67816 1.61136 7.63131 1.6626L4.96464 4.57927C4.88223 4.67809 4.84109 4.80488 4.84977 4.93326C4.85846 5.06164 4.91631 5.18173 5.01129 5.26855C5.10626 5.35537 5.23105 5.40223 5.35969 5.39938C5.48834 5.39653 5.61093 5.3442 5.70198 5.25327L7.49931 3.2866V10.6666C7.49931 10.7992 7.55199 10.9264 7.64576 11.0202C7.73952 11.1139 7.8667 11.1666 7.99931 11.1666C8.13192 11.1666 8.25909 11.1139 8.35286 11.0202C8.44663 10.9264 8.49931 10.7992 8.49931 10.6666V3.28793L10.2973 5.2546C10.3869 5.35246 10.5116 5.41075 10.6442 5.41662C10.7767 5.4225 10.9061 5.37549 11.004 5.28593C11.1018 5.19638 11.1601 5.07161 11.166 4.93909C11.1719 4.80656 11.1249 4.67713 11.0353 4.57927L8.36931 1.6626Z" fill="black"/>
<path id="Vector_2" d="M2.5 10C2.5 9.86739 2.44732 9.74022 2.35355 9.64645C2.25979 9.55268 2.13261 9.5 2 9.5C1.86739 9.5 1.74021 9.55268 1.64645 9.64645C1.55268 9.74022 1.5 9.86739 1.5 10V10.0367C1.5 10.948 1.5 11.6833 1.578 12.2613C1.658 12.8613 1.83133 13.3667 2.232 13.768C2.63333 14.1693 3.13867 14.3413 3.73867 14.4227C4.31667 14.5 5.052 14.5 5.96333 14.5H10.0367C10.948 14.5 11.6833 14.5 12.2613 14.4227C12.8613 14.3413 13.3667 14.1693 13.768 13.768C14.1693 13.3667 14.3413 12.8613 14.4227 12.2613C14.5 11.6833 14.5 10.948 14.5 10.0367V10C14.5 9.86739 14.4473 9.74022 14.3536 9.64645C14.2598 9.55268 14.1326 9.5 14 9.5C13.8674 9.5 13.7402 9.55268 13.6464 9.64645C13.5527 9.74022 13.5 9.86739 13.5 10C13.5 10.9567 13.4987 11.624 13.4313 12.128C13.3653 12.6173 13.2447 12.876 13.0607 13.0607C12.876 13.2453 12.6173 13.3653 12.1273 13.4313C11.624 13.4987 10.9567 13.5 10 13.5H6C5.04333 13.5 4.37533 13.4987 3.872 13.4313C3.38267 13.3653 3.124 13.2447 2.93933 13.0607C2.75467 12.876 2.63467 12.6173 2.56867 12.1273C2.50133 11.624 2.5 10.9567 2.5 10Z" fill="black"/>
</g>
</svg>
