<svg width="16" height="16" viewBox="0 0 16 16" fill="none" xmlns="http://www.w3.org/2000/svg">
<g id="solar:eye-outline">
<g id="Group">
<path id="Vector" fill-rule="evenodd" clip-rule="evenodd" d="M8 5.5C7.33696 5.5 6.70107 5.76339 6.23223 6.23223C5.76339 6.70107 5.5 7.33696 5.5 8C5.5 8.66304 5.76339 9.29893 6.23223 9.76777C6.70107 10.2366 7.33696 10.5 8 10.5C8.66304 10.5 9.29893 10.2366 9.76777 9.76777C10.2366 9.29893 10.5 8.66304 10.5 8C10.5 7.33696 10.2366 6.70107 9.76777 6.23223C9.29893 5.76339 8.66304 5.5 8 5.5ZM6.5 8C6.5 7.60218 6.65804 7.22064 6.93934 6.93934C7.22064 6.65804 7.60218 6.5 8 6.5C8.39782 6.5 8.77936 6.65804 9.06066 6.93934C9.34196 7.22064 9.5 7.60218 9.5 8C9.5 8.39782 9.34196 8.77936 9.06066 9.06066C8.77936 9.34196 8.39782 9.5 8 9.5C7.60218 9.5 7.22064 9.34196 6.93934 9.06066C6.65804 8.77936 6.5 8.39782 6.5 8Z" fill="black"/>
<path id="Vector_2" fill-rule="evenodd" clip-rule="evenodd" d="M7.99992 2.1665C4.99058 2.1665 2.96325 3.96917 1.78659 5.49784L1.76592 5.52517C1.49925 5.87117 1.25459 6.18917 1.08859 6.56517C0.910585 6.9685 0.833252 7.40784 0.833252 7.99984C0.833252 8.59184 0.910585 9.03117 1.08859 9.4345C1.25525 9.8105 1.49992 10.1292 1.76592 10.4745L1.78725 10.5018C2.96325 12.0305 4.99058 13.8332 7.99992 13.8332C11.0093 13.8332 13.0366 12.0305 14.2133 10.5018L14.2339 10.4745C14.5006 10.1292 14.7453 9.8105 14.9113 9.4345C15.0893 9.03117 15.1666 8.59184 15.1666 7.99984C15.1666 7.40784 15.0893 6.9685 14.9113 6.56517C14.7446 6.18917 14.4999 5.87117 14.2339 5.52517L14.2126 5.49784C13.0366 3.96917 11.0093 2.1665 7.99992 2.1665ZM2.57992 6.10784C3.66525 4.6965 5.43325 3.1665 7.99992 3.1665C10.5666 3.1665 12.3339 4.6965 13.4199 6.10784C13.7133 6.48784 13.8839 6.7145 13.9966 6.96917C14.1019 7.20784 14.1666 7.49917 14.1666 7.99984C14.1666 8.5005 14.1019 8.79184 13.9966 9.0305C13.8839 9.28517 13.7126 9.51184 13.4206 9.89184C12.3333 11.3032 10.5666 12.8332 7.99992 12.8332C5.43325 12.8332 3.66592 11.3032 2.57992 9.89184C2.28659 9.51184 2.11592 9.28517 2.00325 9.0305C1.89792 8.79184 1.83325 8.5005 1.83325 7.99984C1.83325 7.49917 1.89792 7.20784 2.00325 6.96917C2.11592 6.7145 2.28792 6.48784 2.57992 6.10784Z" fill="black"/>
</g>
</g>
</svg>
